<svg width="538" height="224" viewBox="0 0 538 224" fill="none" xmlns="http://www.w3.org/2000/svg">
<path d="M505 3H33C16.4315 3 3 16.4315 3 33V191C3 207.569 16.4315 221 33 221H505C521.569 221 535 207.569 535 191V33C535 16.4315 521.569 3 505 3Z" fill="white" stroke="black" stroke-width="4.167"/>
<path fill-rule="evenodd" clip-rule="evenodd" d="M121.22 161.05H153.66L115.99 60.79H82.1897L44.5098 161.05H76.1396L81.0298 144.5H116.2L121.22 161.05ZM87.7598 122.82L98.7097 86.78L109.78 122.82H87.7598Z" fill="black"/>
<path fill-rule="evenodd" clip-rule="evenodd" d="M214.75 143.23V117.68H223.58C224.999 117.641 226.418 117.731 227.82 117.95C229.053 118.265 230.226 118.782 231.29 119.48C232.774 120.553 234.079 121.852 235.16 123.33C236.6 125.16 238.43 127.803 240.65 131.26L248.27 143.23H257.84L247.84 127.57C246.059 124.765 243.936 122.192 241.52 119.91C240.124 118.752 238.576 117.79 236.92 117.05C242.45 116.29 246.533 114.51 249.17 111.71C251.803 108.929 253.227 105.219 253.13 101.39C253.163 98.3299 252.335 95.322 250.74 92.7101C249.284 90.2178 247.029 88.2904 244.34 87.2401C241.67 86.2101 237.773 85.6934 232.65 85.6901H207.13V143.23H214.75ZM214.75 92.0502H232.96C237.22 92.0502 240.35 92.9202 242.32 94.6802C243.28 95.509 244.044 96.5411 244.556 97.7017C245.068 98.8622 245.315 100.122 245.28 101.39C245.288 103.223 244.756 105.018 243.75 106.55C242.685 108.165 241.112 109.379 239.28 110C236.64 110.818 233.882 111.183 231.12 111.08H214.75V92.0502ZM283.04 151.51V144.37C285.298 144.345 287.527 143.87 289.599 142.971C291.67 142.073 293.541 140.77 295.102 139.139C296.663 137.508 297.883 135.582 298.689 133.474C299.496 131.365 299.874 129.117 299.8 126.86C299.82 124.741 299.44 122.638 298.68 120.66C297.973 118.806 296.886 117.12 295.49 115.71C293.928 114.213 292.105 113.017 290.11 112.18C287.8 111.336 285.439 110.641 283.04 110.1V89.7301C285.127 90.0806 287.039 91.1107 288.48 92.6602C289.95 94.4849 290.857 96.6984 291.09 99.0302L298.39 97.9302C297.956 93.829 295.962 90.0517 292.82 87.3801C290.41 85.3601 287.15 84.1568 283.04 83.7701V80.3901H278.88V83.7701C274.2 84.2368 270.667 85.5168 268.28 87.6101C265.621 90.0753 263.84 93.341 263.206 96.9111C262.573 100.481 263.122 104.161 264.77 107.39C265.964 109.595 267.769 111.408 269.97 112.61C272.736 114.214 275.746 115.356 278.88 115.99V138.48C277.464 138.311 276.099 137.851 274.87 137.128C273.642 136.405 272.576 135.435 271.74 134.28C270.35 132.5 269.38 129.714 268.83 125.92L261.73 127.25C261.875 130.539 262.841 133.74 264.54 136.56C265.923 138.876 267.902 140.779 270.27 142.07C272.982 143.352 275.895 144.157 278.88 144.45V151.51H283.04ZM278.88 109.2C275.66 108.23 273.38 106.94 272.03 105.31C270.661 103.522 269.949 101.317 270.015 99.0662C270.08 96.8151 270.919 94.6553 272.39 92.9501C274.088 91.1076 276.391 89.9365 278.88 89.6501V109.2ZM283.04 116.97C286.84 118.2 289.373 119.593 290.64 121.15C291.978 122.924 292.65 125.111 292.54 127.33C292.623 130.104 291.664 132.809 289.85 134.91C288.115 136.921 285.681 138.197 283.04 138.48V116.97ZM360.7 89.2601C357.596 86.6438 353.626 85.2845 349.57 85.4501C343.5 85.4501 338.673 87.6502 335.09 92.0502C330.98 97.1002 328.927 105.184 328.93 116.3C328.93 126.25 330.787 133.387 334.5 137.71C336.251 139.813 338.457 141.491 340.952 142.617C343.446 143.743 346.164 144.288 348.9 144.21C352.16 144.266 355.37 143.41 358.17 141.74C360.947 140.028 363.172 137.553 364.58 134.61C366.145 131.489 366.947 128.041 366.92 124.55C366.92 119.05 365.263 114.567 361.95 111.1C360.424 109.435 358.563 108.112 356.49 107.216C354.417 106.32 352.178 105.871 349.92 105.9C347.229 105.9 344.577 106.548 342.19 107.79C339.637 109.129 337.484 111.119 335.95 113.56C336 107.8 336.667 103.363 337.95 100.25C339.011 97.4414 340.832 94.9832 343.21 93.1501C344.925 91.8859 347.009 91.2217 349.14 91.2601C350.463 91.2353 351.777 91.4917 352.994 92.0123C354.211 92.5329 355.304 93.3059 356.2 94.2802C357.589 96.0374 358.508 98.1194 358.87 100.33L365.9 99.7802C365.544 95.7464 363.688 91.9927 360.7 89.2601ZM340.39 115.58C341.429 114.472 342.688 113.594 344.086 113.001C345.485 112.409 346.991 112.116 348.51 112.14C350.014 112.103 351.508 112.392 352.891 112.985C354.273 113.579 355.511 114.464 356.52 115.58C358.64 117.87 359.7 121.003 359.7 124.98C359.7 129.11 358.627 132.38 356.48 134.79C355.544 135.922 354.369 136.832 353.039 137.456C351.71 138.08 350.259 138.402 348.79 138.4C346.712 138.391 344.681 137.783 342.94 136.65C341.021 135.425 339.51 133.657 338.6 131.57C337.577 129.386 337.047 127.002 337.05 124.59C336.977 122.941 337.235 121.295 337.808 119.747C338.382 118.2 339.26 116.783 340.39 115.58ZM381.76 143.23C381.794 145.12 381.39 146.992 380.58 148.7C379.831 150.003 378.67 151.02 377.28 151.59L379.24 154.61C381.32 153.788 383.074 152.305 384.23 150.39C385.37 148.182 385.911 145.713 385.8 143.23V135.18H377.75V143.23H381.76ZM401.97 138.24C405.14 142.22 409.497 144.21 415.04 144.21C418.818 144.354 422.524 143.152 425.5 140.82C428.445 138.27 430.603 134.933 431.72 131.2C433.11 127.05 433.803 121.6 433.8 114.85C433.916 110.281 433.483 105.715 432.51 101.25C431.782 98.2237 430.573 95.3336 428.93 92.6901C427.505 90.4336 425.521 88.5838 423.17 87.3201C420.658 86.0287 417.864 85.3859 415.04 85.4501C411.277 85.3112 407.585 86.5085 404.62 88.8301C401.668 91.37 399.502 94.7009 398.38 98.4302C396.98 102.57 396.28 108.043 396.28 114.85C396.28 125.66 398.177 133.457 401.97 138.24ZM407.19 95.4202C408.03 94.1313 409.184 93.0769 410.543 92.3562C411.902 91.6355 413.422 91.2722 414.96 91.3002C418.26 91.3002 421.013 92.8568 423.22 95.9701C425.427 99.0834 426.533 105.377 426.54 114.85C426.54 124.27 425.433 130.55 423.22 133.69C421.007 136.83 418.28 138.4 415.04 138.4C411.8 138.4 409.073 136.837 406.86 133.71C404.647 130.583 403.54 124.297 403.54 114.85C403.54 105.41 404.757 98.9335 407.19 95.4202ZM446.68 138.24C449.84 142.22 454.197 144.21 459.75 144.21C463.528 144.354 467.234 143.152 470.21 140.82C473.155 138.27 475.313 134.933 476.43 131.2C477.81 127.05 478.503 121.6 478.51 114.85C478.629 110.281 478.192 105.714 477.21 101.25C476.49 98.2228 475.284 95.3321 473.64 92.6901C472.211 90.4331 470.224 88.5834 467.87 87.3201C465.362 86.0298 462.57 85.387 459.75 85.4501C455.987 85.3112 452.295 86.5085 449.33 88.8301C446.371 91.3664 444.202 94.6983 443.08 98.4302C441.68 102.57 440.98 108.043 440.98 114.85C440.98 125.66 442.88 133.457 446.68 138.24ZM451.9 95.4202C452.738 94.1297 453.891 93.074 455.251 92.3531C456.611 91.6323 458.131 91.2699 459.67 91.3002C462.96 91.3002 465.713 92.8568 467.93 95.9701C470.147 99.0834 471.253 105.377 471.25 114.85C471.25 124.27 470.143 130.55 467.93 133.69C465.717 136.83 462.99 138.4 459.75 138.4C456.5 138.4 453.77 136.837 451.56 133.71C449.35 130.583 448.247 124.297 448.25 114.85C448.25 105.41 449.467 98.9335 451.9 95.4202Z" fill="black"/>
</svg>
