<svg width="538" height="224" viewBox="0 0 538 224" fill="none" xmlns="http://www.w3.org/2000/svg">
<path d="M505 3H33C16.4315 3 3 16.4315 3 33V191C3 207.569 16.4315 221 33 221H505C521.569 221 535 207.569 535 191V33C535 16.4315 521.569 3 505 3Z" fill="#FF5232" stroke="black" stroke-width="4.167"/>
<path d="M446 26H92C87.5817 26 84 29.5817 84 34C84 38.4183 87.5817 42 92 42H446C450.418 42 454 38.4183 454 34C454 29.5817 450.418 26 446 26Z" fill="#3D3533"/>
<path d="M160.328 104.241H142.428L138.683 115H130.335L147.792 68.7891H154.996L172.484 115H164.105L160.328 104.241ZM144.681 97.7661H158.075L151.378 78.5962L144.681 97.7661ZM175.562 97.5757C175.562 92.286 176.79 88.0436 179.244 84.8486C181.699 81.6325 184.989 80.0244 189.115 80.0244C192.754 80.0244 195.695 81.2939 197.938 83.833V66.25H205.65V115H198.668L198.287 111.445C195.981 114.238 192.902 115.635 189.051 115.635C185.031 115.635 181.773 114.016 179.276 110.779C176.8 107.542 175.562 103.14 175.562 97.5757ZM183.275 98.2422C183.275 101.733 183.941 104.463 185.274 106.431C186.629 108.377 188.543 109.351 191.019 109.351C194.172 109.351 196.478 107.944 197.938 105.129V90.4663C196.52 87.7157 194.235 86.3403 191.083 86.3403C188.586 86.3403 186.66 87.3348 185.306 89.3237C183.952 91.2915 183.275 94.2643 183.275 98.2422ZM221.9 115H214.188V80.6592H221.9V115ZM213.712 71.7407C213.712 70.5558 214.082 69.5719 214.823 68.7891C215.584 68.0062 216.664 67.6147 218.06 67.6147C219.457 67.6147 220.536 68.0062 221.297 68.7891C222.059 69.5719 222.44 70.5558 222.44 71.7407C222.44 72.9045 222.059 73.8778 221.297 74.6606C220.536 75.4224 219.457 75.8032 218.06 75.8032C216.664 75.8032 215.584 75.4224 214.823 74.6606C214.082 73.8778 213.712 72.9045 213.712 71.7407ZM244.435 109.478C246.36 109.478 247.958 108.917 249.227 107.795C250.497 106.674 251.174 105.288 251.258 103.638H258.526C258.442 105.775 257.775 107.774 256.527 109.636C255.278 111.477 253.586 112.937 251.449 114.016C249.312 115.095 247.005 115.635 244.53 115.635C239.727 115.635 235.918 114.08 233.104 110.969C230.29 107.859 228.883 103.564 228.883 98.0835V97.29C228.883 92.0638 230.279 87.8849 233.072 84.7534C235.865 81.6007 239.674 80.0244 244.498 80.0244C248.582 80.0244 251.904 81.2199 254.464 83.6108C257.045 85.9806 258.399 89.1016 258.526 92.9736H251.258C251.174 91.0059 250.497 89.3872 249.227 88.1177C247.979 86.8481 246.381 86.2134 244.435 86.2134C241.938 86.2134 240.012 87.1232 238.658 88.9429C237.304 90.7414 236.616 93.4814 236.595 97.1631V98.4009C236.595 102.125 237.262 104.907 238.595 106.748C239.949 108.568 241.896 109.478 244.435 109.478ZM272.555 115H264.842V80.6592H272.555V115ZM264.366 71.7407C264.366 70.5558 264.736 69.5719 265.477 68.7891C266.239 68.0062 267.318 67.6147 268.714 67.6147C270.111 67.6147 271.19 68.0062 271.952 68.7891C272.713 69.5719 273.094 70.5558 273.094 71.7407C273.094 72.9045 272.713 73.8778 271.952 74.6606C271.19 75.4224 270.111 75.8032 268.714 75.8032C267.318 75.8032 266.239 75.4224 265.477 74.6606C264.736 73.8778 264.366 72.9045 264.366 71.7407ZM279.537 97.5122C279.537 94.1479 280.204 91.1222 281.537 88.4351C282.87 85.7267 284.742 83.6532 287.154 82.2144C289.566 80.7544 292.338 80.0244 295.47 80.0244C300.104 80.0244 303.859 81.5161 306.737 84.4995C309.636 87.4829 311.201 91.4396 311.434 96.3696L311.466 98.1787C311.466 101.564 310.81 104.59 309.498 107.256C308.207 109.922 306.345 111.985 303.912 113.445C301.5 114.905 298.707 115.635 295.533 115.635C290.688 115.635 286.805 114.027 283.885 110.811C280.986 107.573 279.537 103.267 279.537 97.8931V97.5122ZM287.25 98.1787C287.25 101.712 287.979 104.484 289.439 106.494C290.899 108.483 292.931 109.478 295.533 109.478C298.136 109.478 300.156 108.462 301.595 106.431C303.055 104.399 303.785 101.427 303.785 97.5122C303.785 94.0422 303.034 91.2915 301.532 89.2603C300.051 87.229 298.03 86.2134 295.47 86.2134C292.952 86.2134 290.952 87.2184 289.471 89.2285C287.99 91.2174 287.25 94.2008 287.25 98.1787ZM325.145 80.6592L325.367 84.6265C327.906 81.5584 331.239 80.0244 335.365 80.0244C342.516 80.0244 346.156 84.1187 346.283 92.3071V115H338.57V92.7515C338.57 90.5721 338.094 88.964 337.142 87.9272C336.211 86.8693 334.677 86.3403 332.54 86.3403C329.43 86.3403 327.113 87.7474 325.589 90.5615V115H317.877V80.6592H325.145ZM374.688 115C374.35 114.344 374.054 113.276 373.8 111.794C371.345 114.355 368.341 115.635 364.786 115.635C361.337 115.635 358.523 114.651 356.344 112.683C354.164 110.715 353.075 108.282 353.075 105.383C353.075 101.723 354.429 98.9193 357.137 96.9727C359.867 95.0049 363.76 94.021 368.817 94.021H373.546V91.7676C373.546 89.9902 373.049 88.5726 372.054 87.5146C371.06 86.4355 369.547 85.896 367.516 85.896C365.759 85.896 364.321 86.3403 363.199 87.229C362.078 88.0965 361.517 89.2074 361.517 90.5615H353.805C353.805 88.6784 354.429 86.9222 355.677 85.293C356.926 83.6426 358.618 82.3519 360.755 81.4209C362.914 80.4899 365.315 80.0244 367.96 80.0244C371.98 80.0244 375.186 81.04 377.577 83.0713C379.968 85.0814 381.195 87.9167 381.258 91.5771V107.065C381.258 110.155 381.692 112.62 382.56 114.46V115H374.688ZM366.214 109.446C367.738 109.446 369.166 109.076 370.499 108.335C371.853 107.594 372.869 106.6 373.546 105.352V98.877H369.388C366.532 98.877 364.384 99.3742 362.945 100.369C361.507 101.363 360.787 102.77 360.787 104.59C360.787 106.071 361.274 107.256 362.247 108.145C363.242 109.012 364.564 109.446 366.214 109.446ZM407.315 87.7051C406.3 87.5358 405.252 87.4512 404.173 87.4512C400.64 87.4512 398.259 88.8053 397.032 91.5137V115H389.32V80.6592H396.683L396.874 84.4995C398.736 81.5161 401.317 80.0244 404.618 80.0244C405.718 80.0244 406.628 80.1725 407.347 80.4688L407.315 87.7051ZM153.568 173.576C153.568 168.286 154.795 164.044 157.25 160.849C159.704 157.632 162.994 156.024 167.12 156.024C170.759 156.024 173.701 157.294 175.943 159.833V142.25H183.656V191H176.673L176.292 187.445C173.986 190.238 170.908 191.635 167.057 191.635C163.036 191.635 159.778 190.016 157.281 186.779C154.806 183.542 153.568 179.14 153.568 173.576ZM161.28 174.242C161.28 177.733 161.947 180.463 163.28 182.431C164.634 184.377 166.549 185.351 169.024 185.351C172.177 185.351 174.483 183.944 175.943 181.129V166.466C174.526 163.716 172.241 162.34 169.088 162.34C166.591 162.34 164.666 163.335 163.312 165.324C161.957 167.292 161.28 170.264 161.28 174.242ZM199.906 191H192.193V156.659H199.906V191ZM191.717 147.741C191.717 146.556 192.088 145.572 192.828 144.789C193.59 144.006 194.669 143.615 196.065 143.615C197.462 143.615 198.541 144.006 199.303 144.789C200.064 145.572 200.445 146.556 200.445 147.741C200.445 148.904 200.064 149.878 199.303 150.661C198.541 151.422 197.462 151.803 196.065 151.803C194.669 151.803 193.59 151.422 192.828 150.661C192.088 149.878 191.717 148.904 191.717 147.741ZM215.489 156.659L215.711 160.626C218.25 157.558 221.583 156.024 225.709 156.024C232.861 156.024 236.5 160.119 236.627 168.307V191H228.915V168.751C228.915 166.572 228.438 164.964 227.486 163.927C226.555 162.869 225.021 162.34 222.884 162.34C219.774 162.34 217.457 163.747 215.934 166.562V191H208.221V156.659H215.489ZM252.115 160.404C254.633 157.484 257.818 156.024 261.668 156.024C268.989 156.024 272.703 160.203 272.809 168.561V191H265.096V168.847C265.096 166.477 264.578 164.805 263.541 163.832C262.525 162.838 261.023 162.34 259.034 162.34C255.945 162.34 253.639 163.716 252.115 166.466V191H244.403V142.25H252.115V160.404ZM295.755 191.635C290.868 191.635 286.9 190.101 283.854 187.033C280.828 183.944 279.315 179.839 279.315 174.718V173.766C279.315 170.338 279.971 167.281 281.283 164.594C282.616 161.885 284.478 159.78 286.869 158.278C289.26 156.776 291.926 156.024 294.867 156.024C299.543 156.024 303.15 157.516 305.689 160.5C308.25 163.483 309.53 167.704 309.53 173.163V176.273H287.091C287.324 179.109 288.265 181.352 289.916 183.002C291.587 184.652 293.682 185.478 296.2 185.478C299.733 185.478 302.611 184.049 304.833 181.193L308.99 185.16C307.615 187.213 305.774 188.81 303.468 189.953C301.183 191.074 298.612 191.635 295.755 191.635ZM294.835 162.213C292.719 162.213 291.005 162.954 289.693 164.435C288.403 165.916 287.577 167.979 287.218 170.624H301.913V170.053C301.743 167.471 301.056 165.525 299.85 164.213C298.644 162.88 296.972 162.213 294.835 162.213ZM323.749 191H316.036V156.659H323.749V191ZM315.56 147.741C315.56 146.556 315.93 145.572 316.671 144.789C317.433 144.006 318.512 143.615 319.908 143.615C321.305 143.615 322.384 144.006 323.146 144.789C323.907 145.572 324.288 146.556 324.288 147.741C324.288 148.904 323.907 149.878 323.146 150.661C322.384 151.422 321.305 151.803 319.908 151.803C318.512 151.803 317.433 151.422 316.671 150.661C315.93 149.878 315.56 148.904 315.56 147.741ZM350.155 163.705C349.139 163.536 348.092 163.451 347.013 163.451C343.479 163.451 341.099 164.805 339.872 167.514V191H332.159V156.659H339.522L339.713 160.5C341.575 157.516 344.156 156.024 347.457 156.024C348.557 156.024 349.467 156.173 350.187 156.469L350.155 163.705ZM352.44 173.512C352.44 170.148 353.106 167.122 354.439 164.435C355.772 161.727 357.645 159.653 360.057 158.214C362.469 156.754 365.241 156.024 368.373 156.024C373.006 156.024 376.762 157.516 379.64 160.5C382.538 163.483 384.104 167.44 384.337 172.37L384.369 174.179C384.369 177.564 383.713 180.59 382.401 183.256C381.11 185.922 379.248 187.985 376.815 189.445C374.403 190.905 371.61 191.635 368.436 191.635C363.591 191.635 359.708 190.027 356.788 186.811C353.889 183.573 352.44 179.267 352.44 173.893V173.512ZM360.152 174.179C360.152 177.712 360.882 180.484 362.342 182.494C363.802 184.483 365.833 185.478 368.436 185.478C371.039 185.478 373.059 184.462 374.498 182.431C375.958 180.399 376.688 177.427 376.688 173.512C376.688 170.042 375.937 167.292 374.435 165.26C372.953 163.229 370.933 162.213 368.373 162.213C365.855 162.213 363.855 163.218 362.374 165.229C360.893 167.217 360.152 170.201 360.152 174.179Z" fill="white"/>
</svg>
