<svg width="538" height="224" viewBox="0 0 538 224" fill="none" xmlns="http://www.w3.org/2000/svg">
<path d="M505 3H33C16.4315 3 3 16.4315 3 33V191C3 207.569 16.4315 221 33 221H505C521.569 221 535 207.569 535 191V33C535 16.4315 521.569 3 505 3Z" fill="white" stroke="black" stroke-width="4.167"/>
<path fill-rule="evenodd" clip-rule="evenodd" d="M41.6299 164.05H95.1101C99.7604 163.83 104.396 163.373 109 162.68C114.24 162 118.16 160.907 120.76 159.4C124.882 157.055 128.306 153.656 130.68 149.55C133.122 145.286 134.372 140.443 134.3 135.53C134.3 129.15 132.603 123.85 129.21 119.63C125.817 115.41 120.517 112.433 113.31 110.7C118.05 109.06 121.65 106.827 124.11 104C127.798 99.7876 129.774 94.347 129.65 88.75C129.712 85.4025 129.051 82.081 127.712 79.0125C126.373 75.9439 124.387 73.2005 121.89 70.97C116.71 66.18 109.29 63.7867 99.6299 63.79H41.6299V164.05ZM72.8899 84.1001H86.5701C91.2601 84.1001 94.5533 84.9201 96.45 86.5601C97.4042 87.4156 98.1548 88.4741 98.6462 89.6577C99.1377 90.8414 99.3576 92.1201 99.29 93.3999C99.29 96.5499 98.34 98.9501 96.45 100.62C94.56 102.29 91.1901 103.11 86.3601 103.11H72.8899V84.1001ZM72.8899 122.19H88.6201C94.0401 122.19 97.8333 123.093 100 124.9C101.056 125.758 101.9 126.85 102.463 128.088C103.027 129.327 103.296 130.68 103.25 132.04C103.312 133.477 103.049 134.908 102.481 136.229C101.913 137.55 101.055 138.726 99.97 139.67C97.78 141.56 94.0199 142.507 88.6899 142.51H72.8899V122.19Z" fill="black"/>
<path fill-rule="evenodd" clip-rule="evenodd" d="M214.75 142.23V116.68H223.58C224.999 116.641 226.418 116.731 227.82 116.95C229.053 117.265 230.226 117.782 231.29 118.48C232.774 119.553 234.079 120.852 235.16 122.33C236.6 124.16 238.43 126.803 240.65 130.26L248.27 142.23H257.84L247.84 126.57C246.059 123.765 243.936 121.192 241.52 118.91C240.124 117.752 238.576 116.789 236.92 116.05C242.45 115.29 246.533 113.51 249.17 110.71C251.803 107.929 253.227 104.218 253.13 100.39C253.163 97.3297 252.335 94.3219 250.74 91.71C249.284 89.2177 247.029 87.2903 244.34 86.24C241.67 85.21 237.773 84.6933 232.65 84.6899H207.13V142.23H214.75ZM214.75 91.05H232.96C237.22 91.05 240.35 91.9199 242.32 93.6799C243.28 94.5088 244.044 95.5408 244.556 96.7014C245.068 97.862 245.315 99.1219 245.28 100.39C245.288 102.223 244.756 104.018 243.75 105.55C242.685 107.165 241.112 108.379 239.28 109C236.64 109.818 233.882 110.183 231.12 110.08H214.75V91.05ZM283.04 150.51V143.37C285.298 143.345 287.527 142.869 289.599 141.971C291.67 141.073 293.541 139.77 295.102 138.139C296.663 136.508 297.883 134.582 298.689 132.473C299.496 130.365 299.874 128.117 299.8 125.86C299.82 123.741 299.44 121.638 298.68 119.66C297.973 117.806 296.886 116.12 295.49 114.71C293.928 113.213 292.105 112.017 290.11 111.18C287.8 110.336 285.439 109.641 283.04 109.1V88.73C285.127 89.0805 287.039 90.1104 288.48 91.6599C289.95 93.4847 290.857 95.6983 291.09 98.03L298.39 96.9299C297.956 92.8288 295.962 89.0515 292.82 86.3799C290.41 84.3599 287.15 83.1567 283.04 82.77V79.3899H278.88V82.77C274.2 83.2367 270.667 84.5168 268.28 86.6101C265.621 89.0753 263.84 92.341 263.206 95.9111C262.573 99.4812 263.122 103.16 264.77 106.39C265.964 108.595 267.769 110.408 269.97 111.61C272.736 113.214 275.746 114.356 278.88 114.99V137.48C277.464 137.311 276.099 136.85 274.87 136.127C273.642 135.405 272.576 134.435 271.74 133.28C270.35 131.5 269.38 128.713 268.83 124.92L261.73 126.25C261.875 129.539 262.841 132.74 264.54 135.56C265.923 137.876 267.902 139.779 270.27 141.07C272.982 142.352 275.895 143.157 278.88 143.45V150.51H283.04ZM278.88 108.2C275.66 107.23 273.38 105.94 272.03 104.31C270.661 102.522 269.949 100.317 270.015 98.0662C270.08 95.8151 270.919 93.6551 272.39 91.95C274.088 90.1075 276.391 88.9363 278.88 88.6499V108.2ZM283.04 115.97C286.84 117.2 289.373 118.593 290.64 120.15C291.978 121.924 292.65 124.111 292.54 126.33C292.623 129.104 291.664 131.809 289.85 133.91C288.115 135.921 285.681 137.197 283.04 137.48V115.97ZM357.89 92.22C353.948 96.8382 350.547 101.891 347.75 107.28C344.599 113.155 342.143 119.377 340.43 125.82C338.897 131.166 338.001 136.674 337.76 142.23H345.02C345.344 136.874 346.253 131.569 347.73 126.41C349.739 119.466 352.537 112.776 356.07 106.47C359.057 100.868 362.714 95.6499 366.96 90.9299V85.4299H329.71V92.22H357.89ZM381.76 142.23C381.794 144.12 381.39 145.992 380.58 147.7C379.831 149.003 378.67 150.02 377.28 150.59L379.24 153.61C381.32 152.788 383.074 151.305 384.23 149.39C385.37 147.181 385.911 144.713 385.8 142.23V134.18H377.75V142.23H381.76ZM401.97 137.24C405.14 141.22 409.497 143.21 415.04 143.21C418.818 143.353 422.524 142.152 425.5 139.82C428.445 137.27 430.603 133.933 431.72 130.2C433.11 126.05 433.803 120.6 433.8 113.85C433.916 109.281 433.483 104.715 432.51 100.25C431.782 97.2236 430.573 94.3334 428.93 91.6899C427.505 89.4335 425.521 87.5838 423.17 86.3201C420.658 85.0287 417.864 84.3858 415.04 84.45C411.277 84.3111 407.585 85.5085 404.62 87.8301C401.668 90.37 399.502 93.7006 398.38 97.4299C396.98 101.57 396.28 107.043 396.28 113.85C396.28 124.66 398.177 132.457 401.97 137.24ZM407.19 94.4199C408.03 93.131 409.184 92.0769 410.543 91.3562C411.902 90.6355 413.422 90.2721 414.96 90.3C418.26 90.3 421.013 91.8566 423.22 94.97C425.427 98.0833 426.533 104.377 426.54 113.85C426.54 123.27 425.433 129.55 423.22 132.69C421.007 135.83 418.28 137.4 415.04 137.4C411.8 137.4 409.073 135.837 406.86 132.71C404.647 129.583 403.54 123.297 403.54 113.85C403.54 104.41 404.757 97.9333 407.19 94.4199ZM446.68 137.24C449.84 141.22 454.197 143.21 459.75 143.21C463.528 143.353 467.234 142.152 470.21 139.82C473.155 137.27 475.313 133.933 476.43 130.2C477.81 126.05 478.503 120.6 478.51 113.85C478.629 109.281 478.192 104.714 477.21 100.25C476.49 97.2227 475.284 94.332 473.64 91.6899C472.211 89.433 470.224 87.5834 467.87 86.3201C465.362 85.0298 462.57 84.3869 459.75 84.45C455.987 84.3111 452.295 85.5085 449.33 87.8301C446.371 90.3664 444.202 93.698 443.08 97.4299C441.68 101.57 440.98 107.043 440.98 113.85C440.98 124.66 442.88 132.457 446.68 137.24ZM451.9 94.4199C452.738 93.1294 453.891 92.0739 455.251 91.353C456.611 90.6321 458.131 90.2698 459.67 90.3C462.96 90.3 465.713 91.8566 467.93 94.97C470.147 98.0833 471.253 104.377 471.25 113.85C471.25 123.27 470.143 129.55 467.93 132.69C465.717 135.83 462.99 137.4 459.75 137.4C456.5 137.4 453.77 135.837 451.56 132.71C449.35 129.583 448.247 123.297 448.25 113.85C448.25 104.41 449.467 97.9333 451.9 94.4199Z" fill="black"/>
</svg>
